<svg xmlns="http://www.w3.org/2000/svg" fill="none" viewBox="0 0 128 128">
    <defs>
        <path id="a-path" d="M50.4 78.5a75.1 75.1 0 0 0-28.5 6.9l24.2-65.7c.7-2 1.9-3.2 3.4-3.2h29c1.5 0 2.7 1.2 3.4 3.2l24.2 65.7s-11.6-7-28.5-7L67 45.5c-.4-1.7-1.6-2.8-2.9-2.8-1.3 0-2.5 1.1-2.9 2.7L50.4 78.5Z" />
        
        <mask id="gap-mask">
            <rect x="0" y="0" width="128" height="128" fill="white" />
            <rect x="70" y="-10" width="23" height="150" fill="black" />
        </mask>
    </defs>

    <!-- The masked A shape with a gap cut out -->
    <use href="#a-path" class="a-shape" mask="url(#gap-mask)" />
    
    <!-- The vertical I, extended down to Y=78.5 to match the baseline of the A's pointed tail -->
    <path d="M 74.5 -5 L 89.5 -5 L 89.5 78.5 Q 82 76 74.5 76.5 Z" class="i-line" />
    
    <style>
        .a-shape { fill: #000; }
        .i-line { fill: #4338ca; }
        @media (prefers-color-scheme: dark) {
            .a-shape { fill: #FFF; }
            .i-line { fill: #818cf8; }
        }
    </style>
</svg>
